<svg version="1.1" id="Layer_1" xmlns="http://www.w3.org/2000/svg" xmlns:xlink="http://www.w3.org/1999/xlink" x="0px" y="0px"
	 width="100%" viewBox="0 0 1654 330" enable-background="new 0 0 1654 330" xml:space="preserve">
<path fill="#00FFFFFF" opacity="1.000000" stroke="none" 
	d="
M1.000000,28.000000 
	C1.000000,19.002790 1.000000,10.005582 1.000000,1.004187 
	C442.693512,1.000000 884.387024,1.000000 1326.547363,1.207848 
	C1327.014160,1.415695 1327.035522,1.831082 1326.616943,2.004349 
	C1326.101807,3.997381 1325.920898,5.817131 1325.920654,7.636909 
	C1325.906494,85.104744 1325.900024,162.572586 1325.912598,240.040421 
	C1325.917480,270.360291 1325.969482,300.680145 1326.000000,331.000000 
	C884.333313,331.000000 442.666656,331.000000 1.000000,331.000000 
	C1.000000,326.920654 1.000000,322.922058 1.463892,318.389893 
	C28.532951,317.856384 55.138123,317.856384 81.699738,317.856384 
	C81.699738,314.863525 81.699738,312.451630 81.699738,309.943085 
	C80.725304,309.943085 80.061905,309.946686 79.398560,309.942566 
	C58.145824,309.810730 47.624126,296.155243 47.762432,278.053192 
	C47.808239,272.057678 47.418762,266.059784 47.416252,260.062866 
	C47.389046,195.074493 47.399303,130.086121 47.399349,65.097755 
	C47.399349,63.384846 47.399345,61.671936 47.399345,59.959023 
	C48.970005,60.722607 49.501190,61.647907 49.847370,62.637905 
	C57.888981,85.634766 65.842583,108.662613 73.948936,131.636581 
	C95.453026,192.580597 117.008873,253.506393 138.645569,314.403381 
	C139.128876,315.763672 140.823257,316.693634 141.952713,317.824341 
	C143.051514,316.639984 144.684326,315.640686 145.168610,314.243378 
	C151.898224,294.825623 158.396011,275.327667 165.095123,255.899155 
	C185.233185,197.495514 205.428467,139.111588 225.618866,80.726006 
	C228.397171,72.691826 231.274231,64.691803 234.105560,56.675961 
	C234.386932,56.747169 234.668289,56.818378 234.949661,56.889587 
	C234.949661,57.676064 234.949707,58.462536 234.949661,59.249012 
	C234.945648,128.903198 234.960007,198.557404 234.907227,268.211548 
	C234.902313,274.702545 234.685135,281.209290 234.196426,287.680756 
	C233.090286,302.327759 225.446106,309.487610 210.710907,309.948822 
	C207.626556,310.045380 204.536621,309.962891 201.619949,309.962891 
	C201.619949,313.004913 201.619949,315.257446 201.619949,317.456055 
	C242.988358,317.456055 284.022797,317.456055 325.033386,317.456055 
	C325.033386,314.815582 325.033386,312.561035 325.033386,309.890350 
	C321.300171,309.890350 317.811798,310.089355 314.352783,309.854706 
	C301.725464,308.997955 294.120819,301.852173 292.650482,289.483978 
	C292.238678,286.019897 292.031433,282.510590 292.029022,279.021820 
	C291.982269,210.867462 291.959778,142.713043 292.002075,74.558685 
	C292.005890,68.406784 292.180786,62.223732 292.811188,56.110306 
	C293.953430,45.033047 300.035889,38.679691 311.087097,36.915009 
	C315.634796,36.188828 320.298706,36.190506 325.101501,35.847420 
	C325.101501,33.502033 325.101501,31.241957 325.101501,28.964180 
	C324.453247,28.782761 323.984436,28.537066 323.515350,28.536621 
	C292.854462,28.507528 262.193268,28.456495 231.533447,28.632370 
	C230.239273,28.639793 228.256134,30.532530 227.772003,31.949463 
	C215.081940,69.090332 202.554169,106.286629 189.984589,143.468689 
	C181.600403,168.269882 173.194763,193.063797 164.541626,218.620255 
	C163.564224,216.255173 162.795792,214.625931 162.206543,212.934296 
	C156.430664,196.352524 150.731567,179.743896 144.920990,163.174347 
	C129.730743,119.857483 114.440895,76.575363 99.379478,33.213844 
	C98.145676,29.661758 96.741051,28.368046 92.888908,28.391525 
	C64.061798,28.567236 35.233131,28.496109 6.404984,28.466660 
	C4.603166,28.464819 2.801654,28.162516 1.000000,28.000000 
M434.066620,164.512344 
	C434.086365,172.009827 433.886780,179.517044 434.218323,187.000702 
	C434.384216,190.744797 432.835815,192.402832 429.745148,194.170456 
	C408.530457,206.303757 387.162354,218.346649 369.104645,235.060776 
	C352.547760,250.385757 344.835632,269.312408 348.951965,292.099243 
	C352.345215,310.883118 366.726196,321.884521 385.682495,320.058136 
	C396.482422,319.017578 405.511139,313.481628 413.795532,306.989044 
	C420.803833,301.496582 427.244446,295.279755 434.145569,289.199066 
	C434.422241,290.569946 434.747009,291.837769 434.927887,293.125763 
	C438.640869,319.565369 460.799286,324.741394 478.892822,317.891205 
	C491.739777,313.027405 498.147644,301.615265 504.856903,290.887878 
	C503.220520,288.955048 501.745270,287.212555 500.029602,285.186066 
	C498.955566,286.585205 498.445618,287.745331 497.557068,288.313873 
	C494.904907,290.011169 492.078705,292.775757 489.367737,292.722412 
	C485.479431,292.645874 484.112213,288.669281 483.772125,284.982391 
	C483.421143,281.177490 483.068695,277.357788 483.030243,273.541412 
	C482.654266,236.231583 482.572754,198.917130 481.926758,161.612335 
	C481.554596,140.123611 465.189270,119.861053 444.314606,114.795731 
	C417.989471,108.407829 393.612000,113.790428 372.161346,129.917786 
	C358.691406,140.044983 350.957153,154.194534 351.193329,171.548477 
	C351.459106,191.079758 372.802246,203.905273 388.769470,194.455566 
	C400.283905,187.641113 403.695251,171.488663 396.260620,158.830399 
	C394.164185,155.261002 391.799713,151.839676 389.861420,148.189392 
	C387.915009,144.523773 388.293060,140.851318 390.739655,137.402863 
	C395.512054,130.676224 408.282318,126.768608 417.522888,129.261475 
	C425.649536,131.453812 432.199585,139.291443 433.034882,148.092285 
	C433.521637,153.220367 433.722229,158.375595 434.066620,164.512344 
M931.793335,182.831421 
	C927.731262,166.040161 921.680359,150.222839 910.173828,136.895462 
	C882.129272,104.412804 832.794861,103.147369 806.750305,138.266235 
	C793.272766,156.439651 785.537781,177.053879 783.222473,199.348404 
	C779.908875,231.255447 784.138428,261.794922 800.760376,290.220306 
	C820.188782,323.445099 856.755981,330.623108 885.849609,318.402405 
	C907.914185,309.134247 920.062134,290.437592 927.581726,268.781708 
	C937.243835,240.955597 937.792664,212.409012 931.793335,182.831421 
M1114.959717,200.387177 
	C1111.456665,230.380859 1115.657104,259.039490 1130.005615,285.869781 
	C1147.607300,318.783051 1175.953125,328.662842 1207.167603,321.838074 
	C1231.315186,316.558441 1246.115723,299.567108 1255.492554,277.960938 
	C1270.603638,243.142395 1270.957153,207.296799 1260.170288,171.219589 
	C1254.082764,150.859695 1243.157715,133.876068 1224.711304,122.315735 
	C1197.047485,104.978828 1161.874390,110.213165 1140.940063,135.320450 
	C1125.473877,153.869522 1118.031250,175.828735 1114.959717,200.387177 
M568.499939,317.836945 
	C582.953003,317.836945 597.406006,317.836945 611.827209,317.836945 
	C611.827209,315.077057 611.827209,312.843628 611.827209,310.602783 
	C609.202148,310.163177 606.890625,309.907379 604.644226,309.376373 
	C596.409119,307.429810 592.096558,302.579498 591.272888,294.162323 
	C590.949219,290.854675 590.980042,287.505280 590.974304,284.174683 
	C590.939880,264.179474 591.031555,244.183594 590.901733,224.189102 
	C590.806213,209.462280 592.409851,194.948242 596.143494,180.725494 
	C598.341187,172.354050 601.215759,164.185806 607.921936,158.082352 
	C613.901855,152.639832 618.172791,152.699203 623.806519,158.295517 
	C626.403381,160.875076 628.875549,163.620560 631.709229,165.914001 
	C641.806335,174.086121 653.500671,171.806976 659.971985,160.552292 
	C664.234192,153.139587 664.392639,145.018417 664.061951,136.805939 
	C663.240479,116.405167 648.671936,107.152832 630.178040,115.317520 
	C629.269592,115.718613 628.427490,116.270470 627.555908,116.754662 
	C615.449463,123.480576 607.846497,134.360901 600.880127,145.794891 
	C597.677979,151.050583 594.675781,156.428162 591.582947,161.750458 
	C591.266479,161.662933 590.950073,161.575394 590.633606,161.487854 
	C590.633606,147.111389 590.633606,132.734924 590.633606,118.432831 
	C568.180237,118.432831 546.242676,118.432831 524.185242,118.432831 
	C524.185242,121.118896 524.185242,123.544327 524.185242,125.929863 
	C539.562683,128.535019 541.791199,135.812195 541.870728,149.273956 
	C542.134338,193.927689 542.016907,238.584305 541.853149,283.239105 
	C541.833801,288.511902 540.801392,293.811035 539.908569,299.041626 
	C539.123169,303.642944 536.225952,306.790283 531.859070,308.422119 
	C529.399353,309.341248 526.841064,309.996399 524.273438,310.787018 
	C524.273438,313.080658 524.273438,315.306213 524.273438,317.836945 
	C538.889832,317.836945 553.194824,317.836945 568.499939,317.836945 
M1053.401855,125.903847 
	C1044.949829,137.759491 1036.497925,149.615128 1027.970215,161.576981 
	C1027.970215,147.284317 1027.970215,132.864670 1027.970215,118.373169 
	C1005.813049,118.373169 984.046509,118.373169 962.045471,118.373169 
	C962.045471,121.002533 962.045471,123.441063 962.045471,126.031075 
	C963.009521,126.309059 963.936218,126.664574 964.895752,126.839188 
	C973.611694,128.425247 978.088928,133.060303 978.925171,141.805679 
	C979.447754,147.270569 979.901001,152.767883 979.913086,158.251678 
	C979.997437,196.578400 980.046326,234.905777 979.883179,273.231964 
	C979.851379,280.699799 978.875061,288.166077 978.274475,295.628296 
	C977.624512,303.704803 973.008667,308.216614 965.283691,309.871094 
	C964.192871,310.104675 963.110840,310.379669 962.168701,310.601593 
	C962.168701,313.171295 962.168701,315.398621 962.168701,317.551208 
	C991.616150,317.551208 1020.703613,317.551208 1049.638672,317.551208 
	C1049.638672,315.021851 1049.638672,312.784210 1049.638672,310.518738 
	C1048.637817,310.372711 1047.990112,310.258881 1047.337891,310.185883 
	C1034.024780,308.696167 1029.212036,303.974182 1028.975708,290.772766 
	C1028.579224,268.616791 1028.509521,246.452454 1028.548950,224.292068 
	C1028.576050,209.120544 1030.033203,194.070862 1034.144653,179.390244 
	C1036.405029,171.319382 1039.388062,163.602707 1045.852539,157.793045 
	C1051.531860,152.688950 1055.968506,152.814362 1061.408569,158.212616 
	C1063.887695,160.672623 1066.245239,163.281921 1068.911011,165.522293 
	C1079.275024,174.232635 1091.600952,172.184509 1097.749756,160.150543 
	C1103.724487,148.457077 1103.889038,136.038971 1098.714355,123.993942 
	C1094.799438,114.881027 1085.794922,110.733902 1076.055664,112.730995 
	C1067.317505,114.522804 1060.061279,119.037331 1053.401855,125.903847 
M745.833618,172.500076 
	C745.833618,154.551315 745.833618,136.602554 745.833618,118.526215 
	C722.623657,118.526215 699.921082,118.526215 677.160706,118.526215 
	C677.160706,121.194717 677.160706,123.507820 677.160706,125.919296 
	C678.050293,126.164085 678.827454,126.442726 679.628784,126.588722 
	C691.108643,128.680359 694.138123,131.789215 695.820312,143.372269 
	C696.058899,145.015457 696.126404,146.696152 696.126343,148.359497 
	C696.125916,195.513428 696.264160,242.668274 695.992310,289.820709 
	C695.912781,303.595642 691.537964,307.964935 677.993713,310.489838 
	C677.710876,310.542572 677.480896,310.878693 677.259583,311.055878 
	C677.259583,313.198425 677.259583,315.307709 677.259583,317.624817 
	C706.586182,317.624817 735.678528,317.624817 764.980225,317.624817 
	C764.980225,315.199249 764.980225,312.959656 764.980225,310.686646 
	C762.348022,310.065948 759.933838,309.549805 757.548584,308.923706 
	C751.583374,307.357941 748.222473,303.330078 747.234741,297.391327 
	C746.608582,293.626068 746.066345,289.792999 746.052063,285.988220 
	C745.911377,248.492416 745.889343,210.996201 745.833618,172.500076 
M695.869019,66.500412 
	C697.833313,70.300339 699.288208,74.491219 701.851746,77.831268 
	C711.970093,91.014854 728.643494,91.445557 739.747192,79.116455 
	C752.036072,65.471344 750.796204,40.669098 737.208984,28.341393 
	C727.648438,19.667095 713.909851,19.757233 704.778992,28.945831 
	C694.492981,39.296875 691.982361,51.804279 695.869019,66.500412 
z"/>
<path fill="#FF0000" opacity="1.000000" stroke="none" 
	d="
M1326.467773,331.000000 
	C1325.969482,300.680145 1325.917480,270.360291 1325.912598,240.040421 
	C1325.900024,162.572586 1325.906494,85.104744 1325.920654,7.636909 
	C1325.920898,5.817131 1326.101807,3.997381 1326.776367,2.304855 
	C1373.231201,42.937660 1419.106079,83.445641 1464.987305,123.946548 
	C1473.413208,131.384399 1481.864136,138.793777 1490.248901,146.168350 
	C1531.279297,110.144394 1571.871094,74.465073 1612.513916,38.843884 
	C1626.610962,26.488491 1640.834351,14.277128 1655.000000,1.999992 
	C1655.000000,111.593994 1655.000000,221.187988 1655.000000,331.000000 
	C1545.645264,331.000000 1436.290527,331.000000 1326.467773,331.000000 
z"/>
<path fill="#020202" opacity="1.000000" stroke="none" 
	d="
M1.000000,28.444162 
	C2.801654,28.162516 4.603166,28.464819 6.404984,28.466660 
	C35.233131,28.496109 64.061798,28.567236 92.888908,28.391525 
	C96.741051,28.368046 98.145676,29.661758 99.379478,33.213844 
	C114.440895,76.575363 129.730743,119.857483 144.920990,163.174347 
	C150.731567,179.743896 156.430664,196.352524 162.206543,212.934296 
	C162.795792,214.625931 163.564224,216.255173 164.541626,218.620255 
	C173.194763,193.063797 181.600403,168.269882 189.984589,143.468689 
	C202.554169,106.286629 215.081940,69.090332 227.772003,31.949463 
	C228.256134,30.532530 230.239273,28.639793 231.533447,28.632370 
	C262.193268,28.456495 292.854462,28.507528 323.515350,28.536621 
	C323.984436,28.537066 324.453247,28.782761 325.101501,28.964180 
	C325.101501,31.241957 325.101501,33.502033 325.101501,35.847420 
	C320.298706,36.190506 315.634796,36.188828 311.087097,36.915009 
	C300.035889,38.679691 293.953430,45.033047 292.811188,56.110306 
	C292.180786,62.223732 292.005890,68.406784 292.002075,74.558685 
	C291.959778,142.713043 291.982269,210.867462 292.029022,279.021820 
	C292.031433,282.510590 292.238678,286.019897 292.650482,289.483978 
	C294.120819,301.852173 301.725464,308.997955 314.352783,309.854706 
	C317.811798,310.089355 321.300171,309.890350 325.033386,309.890350 
	C325.033386,312.561035 325.033386,314.815582 325.033386,317.456055 
	C284.022797,317.456055 242.988358,317.456055 201.619949,317.456055 
	C201.619949,315.257446 201.619949,313.004913 201.619949,309.962891 
	C204.536621,309.962891 207.626556,310.045380 210.710907,309.948822 
	C225.446106,309.487610 233.090286,302.327759 234.196426,287.680756 
	C234.685135,281.209290 234.902313,274.702545 234.907227,268.211548 
	C234.960007,198.557404 234.945648,128.903198 234.949661,59.249012 
	C234.949707,58.462536 234.949661,57.676064 234.949661,56.889587 
	C234.668289,56.818378 234.386932,56.747169 234.105560,56.675961 
	C231.274231,64.691803 228.397171,72.691826 225.618866,80.726006 
	C205.428467,139.111588 185.233185,197.495514 165.095123,255.899155 
	C158.396011,275.327667 151.898224,294.825623 145.168610,314.243378 
	C144.684326,315.640686 143.051514,316.639984 141.952713,317.824341 
	C140.823257,316.693634 139.128876,315.763672 138.645569,314.403381 
	C117.008873,253.506393 95.453026,192.580597 73.948936,131.636581 
	C65.842583,108.662613 57.888981,85.634766 49.847370,62.637905 
	C49.501190,61.647907 48.970005,60.722607 47.399345,59.959023 
	C47.399345,61.671936 47.399349,63.384846 47.399349,65.097755 
	C47.399303,130.086121 47.389046,195.074493 47.416252,260.062866 
	C47.418762,266.059784 47.808239,272.057678 47.762432,278.053192 
	C47.624126,296.155243 58.145824,309.810730 79.398560,309.942566 
	C80.061905,309.946686 80.725304,309.943085 81.699738,309.943085 
	C81.699738,312.451630 81.699738,314.863525 81.699738,317.856384 
	C55.138123,317.856384 28.532951,317.856384 1.463892,317.928192 
	C1.000000,315.629425 1.000000,313.258881 1.443317,310.435181 
	C19.680801,309.972046 29.084789,302.625122 33.017368,285.413452 
	C33.712757,282.369934 33.979881,279.166138 33.982544,276.035950 
	C34.040813,207.563385 34.052341,139.090744 34.001564,70.618187 
	C33.997746,65.469627 33.534370,60.315975 33.153782,55.174377 
	C32.530670,46.756393 27.700499,41.009983 20.103865,38.645508 
	C14.048107,36.760639 7.390463,36.809521 1.000000,36.000000 
	C1.000000,33.629440 1.000000,31.258884 1.000000,28.444162 
M47.694607,58.573017 
	C47.694607,58.573017 47.490429,58.425694 47.490429,58.425694 
	C47.490429,58.425694 47.509876,58.770905 47.694607,58.573017 
z"/>
<path fill="#FFFEFE" opacity="1.000000" stroke="none" 
	d="
M1655.000000,1.499992 
	C1640.834351,14.277128 1626.610962,26.488491 1612.513916,38.843884 
	C1571.871094,74.465073 1531.279297,110.144394 1490.248901,146.168350 
	C1481.864136,138.793777 1473.413208,131.384399 1464.987305,123.946548 
	C1419.106079,83.445641 1373.231201,42.937660 1327.194824,2.131588 
	C1327.035522,1.831082 1327.014160,1.415695 1327.007080,1.207848 
	C1436.333374,1.000000 1545.666626,1.000000 1655.000000,1.499992 
z"/>
<path fill="#00FFFFFF" opacity="1.000000" stroke="none" 
	d="
M1.000000,36.468658 
	C7.390463,36.809521 14.048107,36.760639 20.103865,38.645508 
	C27.700499,41.009983 32.530670,46.756393 33.153782,55.174377 
	C33.534370,60.315975 33.997746,65.469627 34.001564,70.618187 
	C34.052341,139.090744 34.040813,207.563385 33.982544,276.035950 
	C33.979881,279.166138 33.712757,282.369934 33.017368,285.413452 
	C29.084789,302.625122 19.680801,309.972046 1.443317,309.991028 
	C1.000000,218.979111 1.000000,127.958214 1.000000,36.468658 
z"/>
<path fill="#020202" opacity="1.000000" stroke="none" 
	d="
M434.059082,164.015472 
	C433.722229,158.375595 433.521637,153.220367 433.034882,148.092285 
	C432.199585,139.291443 425.649536,131.453812 417.522888,129.261475 
	C408.282318,126.768608 395.512054,130.676224 390.739655,137.402863 
	C388.293060,140.851318 387.915009,144.523773 389.861420,148.189392 
	C391.799713,151.839676 394.164185,155.261002 396.260620,158.830399 
	C403.695251,171.488663 400.283905,187.641113 388.769470,194.455566 
	C372.802246,203.905273 351.459106,191.079758 351.193329,171.548477 
	C350.957153,154.194534 358.691406,140.044983 372.161346,129.917786 
	C393.612000,113.790428 417.989471,108.407829 444.314606,114.795731 
	C465.189270,119.861053 481.554596,140.123611 481.926758,161.612335 
	C482.572754,198.917130 482.654266,236.231583 483.030243,273.541412 
	C483.068695,277.357788 483.421143,281.177490 483.772125,284.982391 
	C484.112213,288.669281 485.479431,292.645874 489.367737,292.722412 
	C492.078705,292.775757 494.904907,290.011169 497.557068,288.313873 
	C498.445618,287.745331 498.955566,286.585205 500.029602,285.186066 
	C501.745270,287.212555 503.220520,288.955048 504.856903,290.887878 
	C498.147644,301.615265 491.739777,313.027405 478.892822,317.891205 
	C460.799286,324.741394 438.640869,319.565369 434.927887,293.125763 
	C434.747009,291.837769 434.422241,290.569946 434.145569,289.199066 
	C427.244446,295.279755 420.803833,301.496582 413.795532,306.989044 
	C405.511139,313.481628 396.482422,319.017578 385.682495,320.058136 
	C366.726196,321.884521 352.345215,310.883118 348.951965,292.099243 
	C344.835632,269.312408 352.547760,250.385757 369.104645,235.060776 
	C387.162354,218.346649 408.530457,206.303757 429.745148,194.170456 
	C432.835815,192.402832 434.384216,190.744797 434.218323,187.000702 
	C433.886780,179.517044 434.086365,172.009827 434.059082,164.015472 
M419.911316,217.405487 
	C414.365753,224.007904 407.971161,230.082291 403.463348,237.330139 
	C395.704376,249.805359 392.141083,263.229919 400.463226,277.204987 
	C404.465881,283.926453 412.362152,286.773621 419.380219,283.370819 
	C423.645538,281.302704 427.620972,278.418854 431.235870,275.327576 
	C432.828918,273.965332 433.984161,271.184662 434.006866,269.033905 
	C434.214508,249.397354 434.135254,229.757736 434.112366,210.119019 
	C434.110992,208.941345 433.874939,207.763916 433.680084,205.955200 
	C428.868927,209.949738 424.657776,213.446106 419.911316,217.405487 
z"/>
<path fill="#020202" opacity="1.000000" stroke="none" 
	d="
M931.859802,183.245941 
	C937.792664,212.409012 937.243835,240.955597 927.581726,268.781708 
	C920.062134,290.437592 907.914185,309.134247 885.849609,318.402405 
	C856.755981,330.623108 820.188782,323.445099 800.760376,290.220306 
	C784.138428,261.794922 779.908875,231.255447 783.222473,199.348404 
	C785.537781,177.053879 793.272766,156.439651 806.750305,138.266235 
	C832.794861,103.147369 882.129272,104.412804 910.173828,136.895462 
	C921.680359,150.222839 927.731262,166.040161 931.859802,183.245941 
M879.096436,289.432434 
	C879.421021,288.323364 879.940247,287.231598 880.040527,286.102600 
	C881.233398,272.687805 882.964478,259.286346 883.387024,245.844681 
	C884.302795,216.717484 885.546997,187.525909 881.872253,158.501968 
	C881.016174,151.740204 878.421265,145.053528 875.741760,138.705750 
	C872.652161,131.386703 866.783203,127.138741 858.464905,127.604462 
	C850.116272,128.071884 844.482971,132.948944 841.291504,140.207260 
	C839.185242,144.997528 837.766602,150.271637 837.064148,155.467560 
	C833.190613,184.116760 833.379272,212.968964 833.850464,241.775772 
	C834.083923,256.050079 835.556152,270.331940 837.070374,284.546204 
	C837.873840,292.088989 841.180908,298.898895 846.924255,304.190613 
	C855.061523,311.688110 867.270447,310.456329 873.420044,301.288116 
	C875.700684,297.887939 877.151306,293.931000 879.096436,289.432434 
z"/>
<path fill="#020202" opacity="1.000000" stroke="none" 
	d="
M1114.978638,199.938110 
	C1118.031250,175.828735 1125.473877,153.869522 1140.940063,135.320450 
	C1161.874390,110.213165 1197.047485,104.978828 1224.711304,122.315735 
	C1243.157715,133.876068 1254.082764,150.859695 1260.170288,171.219589 
	C1270.957153,207.296799 1270.603638,243.142395 1255.492554,277.960938 
	C1246.115723,299.567108 1231.315186,316.558441 1207.167603,321.838074 
	C1175.953125,328.662842 1147.607300,318.783051 1130.005615,285.869781 
	C1115.657104,259.039490 1111.456665,230.380859 1114.978638,199.938110 
M1197.305786,128.704346 
	C1186.485962,125.699028 1177.382324,129.723648 1173.054077,140.443542 
	C1170.601318,146.518051 1168.756592,153.106567 1168.133179,159.607010 
	C1164.437500,198.141129 1163.423828,236.742294 1167.185669,275.343353 
	C1168.192505,285.674927 1170.255249,295.800415 1178.076050,303.578308 
	C1185.807861,311.267792 1197.300415,311.275360 1203.848999,302.570160 
	C1207.603516,297.579132 1210.875610,291.270538 1211.679199,285.199585 
	C1213.792847,269.232483 1215.175171,253.085190 1215.489258,236.983170 
	C1215.937134,214.011688 1215.662842,190.995499 1214.677368,168.042206 
	C1214.300171,159.260391 1211.572388,150.462784 1209.041626,141.931732 
	C1207.384399,136.345612 1203.759644,131.569000 1197.305786,128.704346 
z"/>
<path fill="#020202" opacity="1.000000" stroke="none" 
	d="
M567.999878,317.836945 
	C553.194824,317.836945 538.889832,317.836945 524.273438,317.836945 
	C524.273438,315.306213 524.273438,313.080658 524.273438,310.787018 
	C526.841064,309.996399 529.399353,309.341248 531.859070,308.422119 
	C536.225952,306.790283 539.123169,303.642944 539.908569,299.041626 
	C540.801392,293.811035 541.833801,288.511902 541.853149,283.239105 
	C542.016907,238.584305 542.134338,193.927689 541.870728,149.273956 
	C541.791199,135.812195 539.562683,128.535019 524.185242,125.929863 
	C524.185242,123.544327 524.185242,121.118896 524.185242,118.432831 
	C546.242676,118.432831 568.180237,118.432831 590.633606,118.432831 
	C590.633606,132.734924 590.633606,147.111389 590.633606,161.487854 
	C590.950073,161.575394 591.266479,161.662933 591.582947,161.750458 
	C594.675781,156.428162 597.677979,151.050583 600.880127,145.794891 
	C607.846497,134.360901 615.449463,123.480576 627.555908,116.754662 
	C628.427490,116.270470 629.269592,115.718613 630.178040,115.317520 
	C648.671936,107.152832 663.240479,116.405167 664.061951,136.805939 
	C664.392639,145.018417 664.234192,153.139587 659.971985,160.552292 
	C653.500671,171.806976 641.806335,174.086121 631.709229,165.914001 
	C628.875549,163.620560 626.403381,160.875076 623.806519,158.295517 
	C618.172791,152.699203 613.901855,152.639832 607.921936,158.082352 
	C601.215759,164.185806 598.341187,172.354050 596.143494,180.725494 
	C592.409851,194.948242 590.806213,209.462280 590.901733,224.189102 
	C591.031555,244.183594 590.939880,264.179474 590.974304,284.174683 
	C590.980042,287.505280 590.949219,290.854675 591.272888,294.162323 
	C592.096558,302.579498 596.409119,307.429810 604.644226,309.376373 
	C606.890625,309.907379 609.202148,310.163177 611.827209,310.602783 
	C611.827209,312.843628 611.827209,315.077057 611.827209,317.836945 
	C597.406006,317.836945 582.953003,317.836945 567.999878,317.836945 
z"/>
<path fill="#020202" opacity="1.000000" stroke="none" 
	d="
M1053.641846,125.641083 
	C1060.061279,119.037331 1067.317505,114.522804 1076.055664,112.730995 
	C1085.794922,110.733902 1094.799438,114.881027 1098.714355,123.993942 
	C1103.889038,136.038971 1103.724487,148.457077 1097.749756,160.150543 
	C1091.600952,172.184509 1079.275024,174.232635 1068.911011,165.522293 
	C1066.245239,163.281921 1063.887695,160.672623 1061.408569,158.212616 
	C1055.968506,152.814362 1051.531860,152.688950 1045.852539,157.793045 
	C1039.388062,163.602707 1036.405029,171.319382 1034.144653,179.390244 
	C1030.033203,194.070862 1028.576050,209.120544 1028.548950,224.292068 
	C1028.509521,246.452454 1028.579224,268.616791 1028.975708,290.772766 
	C1029.212036,303.974182 1034.024780,308.696167 1047.337891,310.185883 
	C1047.990112,310.258881 1048.637817,310.372711 1049.638672,310.518738 
	C1049.638672,312.784210 1049.638672,315.021851 1049.638672,317.551208 
	C1020.703613,317.551208 991.616150,317.551208 962.168701,317.551208 
	C962.168701,315.398621 962.168701,313.171295 962.168701,310.601593 
	C963.110840,310.379669 964.192871,310.104675 965.283691,309.871094 
	C973.008667,308.216614 977.624512,303.704803 978.274475,295.628296 
	C978.875061,288.166077 979.851379,280.699799 979.883179,273.231964 
	C980.046326,234.905777 979.997437,196.578400 979.913086,158.251678 
	C979.901001,152.767883 979.447754,147.270569 978.925171,141.805679 
	C978.088928,133.060303 973.611694,128.425247 964.895752,126.839188 
	C963.936218,126.664574 963.009521,126.309059 962.045471,126.031075 
	C962.045471,123.441063 962.045471,121.002533 962.045471,118.373169 
	C984.046509,118.373169 1005.813049,118.373169 1027.970215,118.373169 
	C1027.970215,132.864670 1027.970215,147.284317 1027.970215,161.576981 
	C1036.497925,149.615128 1044.949829,137.759491 1053.641846,125.641083 
z"/>
<path fill="#020202" opacity="1.000000" stroke="none" 
	d="
M745.833618,173.000092 
	C745.889343,210.996201 745.911377,248.492416 746.052063,285.988220 
	C746.066345,289.792999 746.608582,293.626068 747.234741,297.391327 
	C748.222473,303.330078 751.583374,307.357941 757.548584,308.923706 
	C759.933838,309.549805 762.348022,310.065948 764.980225,310.686646 
	C764.980225,312.959656 764.980225,315.199249 764.980225,317.624817 
	C735.678528,317.624817 706.586182,317.624817 677.259583,317.624817 
	C677.259583,315.307709 677.259583,313.198425 677.259583,311.055878 
	C677.480896,310.878693 677.710876,310.542572 677.993713,310.489838 
	C691.537964,307.964935 695.912781,303.595642 695.992310,289.820709 
	C696.264160,242.668274 696.125916,195.513428 696.126343,148.359497 
	C696.126404,146.696152 696.058899,145.015457 695.820312,143.372269 
	C694.138123,131.789215 691.108643,128.680359 679.628784,126.588722 
	C678.827454,126.442726 678.050293,126.164085 677.160706,125.919296 
	C677.160706,123.507820 677.160706,121.194717 677.160706,118.526215 
	C699.921082,118.526215 722.623657,118.526215 745.833618,118.526215 
	C745.833618,136.602554 745.833618,154.551315 745.833618,173.000092 
z"/>
<path fill="#020202" opacity="1.000000" stroke="none" 
	d="
M695.729065,66.117279 
	C691.982361,51.804279 694.492981,39.296875 704.778992,28.945831 
	C713.909851,19.757233 727.648438,19.667095 737.208984,28.341393 
	C750.796204,40.669098 752.036072,65.471344 739.747192,79.116455 
	C728.643494,91.445557 711.970093,91.014854 701.851746,77.831268 
	C699.288208,74.491219 697.833313,70.300339 695.729065,66.117279 
z"/>
<path fill="#00FFFFFF" opacity="1.000000" stroke="none" 
	d="
M47.602242,58.671959 
	C47.509876,58.770905 47.490429,58.425694 47.490429,58.425694 
	C47.490429,58.425694 47.694607,58.573017 47.602242,58.671959 
z"/>
<path fill="#FDFDFD" opacity="1.000000" stroke="none" 
	d="
M420.178955,217.173981 
	C424.657776,213.446106 428.868927,209.949738 433.680084,205.955200 
	C433.874939,207.763916 434.110992,208.941345 434.112366,210.119019 
	C434.135254,229.757736 434.214508,249.397354 434.006866,269.033905 
	C433.984161,271.184662 432.828918,273.965332 431.235870,275.327576 
	C427.620972,278.418854 423.645538,281.302704 419.380219,283.370819 
	C412.362152,286.773621 404.465881,283.926453 400.463226,277.204987 
	C392.141083,263.229919 395.704376,249.805359 403.463348,237.330139 
	C407.971161,230.082291 414.365753,224.007904 420.178955,217.173981 
z"/>
<path fill="#00FFFFFF" opacity="1.000000" stroke="none" 
	d="
M879.038452,289.830200 
	C877.151306,293.931000 875.700684,297.887939 873.420044,301.288116 
	C867.270447,310.456329 855.061523,311.688110 846.924255,304.190613 
	C841.180908,298.898895 837.873840,292.088989 837.070374,284.546204 
	C835.556152,270.331940 834.083923,256.050079 833.850464,241.775772 
	C833.379272,212.968964 833.190613,184.116760 837.064148,155.467560 
	C837.766602,150.271637 839.185242,144.997528 841.291504,140.207260 
	C844.482971,132.948944 850.116272,128.071884 858.464905,127.604462 
	C866.783203,127.138741 872.652161,131.386703 875.741760,138.705750 
	C878.421265,145.053528 881.016174,151.740204 881.872253,158.501968 
	C885.546997,187.525909 884.302795,216.717484 883.387024,245.844681 
	C882.964478,259.286346 881.233398,272.687805 880.040527,286.102600 
	C879.940247,287.231598 879.421021,288.323364 879.038452,289.830200 
z"/>
<path fill="#FDFDFD" opacity="1.000000" stroke="none" 
	d="
M1197.684570,128.841782 
	C1203.759644,131.569000 1207.384399,136.345612 1209.041626,141.931732 
	C1211.572388,150.462784 1214.300171,159.260391 1214.677368,168.042206 
	C1215.662842,190.995499 1215.937134,214.011688 1215.489258,236.983170 
	C1215.175171,253.085190 1213.792847,269.232483 1211.679199,285.199585 
	C1210.875610,291.270538 1207.603516,297.579132 1203.848999,302.570160 
	C1197.300415,311.275360 1185.807861,311.267792 1178.076050,303.578308 
	C1170.255249,295.800415 1168.192505,285.674927 1167.185669,275.343353 
	C1163.423828,236.742294 1164.437500,198.141129 1168.133179,159.607010 
	C1168.756592,153.106567 1170.601318,146.518051 1173.054077,140.443542 
	C1177.382324,129.723648 1186.485962,125.699028 1197.684570,128.841782 
z"/>
</svg>